{"title":"It's In the Blood (2012) WEBRip","uid":8348286,"size":764192557,"categoryP":"video","categoryS":"movies","magnet":"?xt=urn:btih:991920682ff61d4d080e5f270e97883de7212f56&amp;dn=It%27s+In+the+Blood+%282012%29+WEBRip&amp;tr=udp%3A%2F%2Ftracker.openbittorrent.com%3A80&amp;tr=udp%3A%2F%2Fopen.demonii.com%3A1337&amp;tr=udp%3A%2F%2Ftracker.coppersurfer.tk%3A6969&amp;tr=udp%3A%2F%2Fexodus.desync.com%3A6969","seeders":1,"leechers":0,"uploader":"RadioResearch","files":3,"time":1365263471,"description":"*******************************************************************************\n                        It's In The Blood (2012) WEBRip\n*******************************************************************************\n\n-------------------------------------------------------------------------------\n                              General Information\n-------------------------------------------------------------------------------\nType.................: Movie\n\n\n\nVideo Format.........: AVI\nVideo Bitrate........: 1267\nResolution...........: 640 x 360\nColor................: 8 bit\nFPS..................: 29.970\nSource...............: WEB 16:9\nOriginal Format......: NTSC\nGenre................: Horror / Thriller\nIMDB rating..........: 5.3\nMovie Information....: http://www.imdb.com/title/tt2072134/\n\n-------------------------------------------------------------------------------\n                               Post Information\n-------------------------------------------------------------------------------\nPosted by............: RadioResearch\nPosted on............: 4/6/2013\n\n-------------------------------------------------------------------------------\n                                 Release Notes\n-------------------------------------------------------------------------------\nSEEDBOX SUPPORTED!!\n\nIn this case, I found the user review much more descriptive than the IMDB one:\n\n&quot;This film is a breath of fresh air and among genre films I've seen this year, \nyou won't find any better.&quot;\n\n&quot;October and Russell are an estranged son and father (respectively), coming \ntogether (what seems like) for the first time in quite some time. A weekend out \nin the woods to repair bonds gets off on the wrong foot when Russell hastily \nputs down the family dog despite the efforts of October to save him. Clearly \nthis a family at odds and something darker is lurking within their souls.&quot;\n\n&quot;The weekend to reconnect carries on and October and Russell head out to the \nneighboring woods which surround Russell's home. But things quickly derail when \nRussell sees a strange figure in the woods and steps off a cliff and breaks his \nleg. October finds him and drags him to safety.&quot;\n\n&quot;The remainder of our film involves father and son stranded in the woods, trying \nto reconnect, but with the ever present threat of something lurking, out there \nto get them should they try and escape the confines. Flashbacks clue us in as to \nwhat exactly happened to this family. And as the final denouement hits, our film \nends in terrifying fashion as two worlds collide and our monsters make the men \nface their greatest fears.&quot;\n\n&quot;With fantastic performances all around (both Sean Elliott and genre vet Lance \nHenriksen shine), you won't find a better genre feature this year. The film will \nwear on your psyche and stay with you for days. Highly recommended.&quot;\n\nHey, it's got Lance Henriksen!  Ya can't go wrong!\n\nEnjoy!\nRadioResearch\n\nGeneral\nComplete name                            : G:DownloadsIt's In the Blood (2012) \nWEBRipIt's In The Blood.avi\nFormat                                   : AVI\nFormat/Info                              : Audio Video Interleave\nFile size                                : 729 MiB\nDuration                                 : 1h 20mn\nOverall bit rate                         : 1 267 Kbps\n\nVideo\nID                                       : 0\nFormat                                   : MPEG-4 Visual\nFormat profile                           : Simple@L3\nFormat settings, BVOP                    : No\nFormat settings, QPel                    : No\nFormat settings, GMC                     : No warppoints\nFormat settings, Matrix                  : Default (H.263)\nCodec ID                                 : XVID\nCodec ID/Hint                            : XviD\nDuration                                 : 1h 20mn\nBit rate                                 : 1 126 Kbps\nWidth                                    : 640 pixels\nHeight                                   : 360 pixels\nDisplay aspect ratio                     : 16:9\nFrame rate                               : 29.970 fps\nOriginal frame rate                      : 29.000 fps\nColor space                              : YUV\nChroma subsampling                       : 4:2:0\nBit depth                                : 8 bits\nScan type                                : Progressive\nCompression mode                         : Lossy\nBits/(Pixel*Frame)                       : 0.163\nStream size                              : 648 MiB (89%)\nWriting library                          : XviD 1.2.1 (UTC 2008-12-04)\n\nAudio\nID                                       : 1\nFormat                                   : MPEG Audio\nFormat version                           : Version 1\nFormat profile                           : Layer 3\nMode                                     : Joint stereo\nMode extension                           : MS Stereo\nCodec ID                                 : 55\nCodec ID/Hint                            : MP3\nDuration                                 : 1h 20mn\nBit rate mode                            : Constant\nBit rate                                 : 128 Kbps\nChannel(s)                               : 2 channels\nSampling rate                            : 44.1 KHz\nCompression mode                         : Lossy\nStream size                              : 73.6 MiB (10%)\nAlignment                                : Aligned on interleaves\nInterleave, duration                     : 26 ms (0.78 video frame)\nWriting library                          : LAME3.98.2\n\n\n\n-------------------------------------------------------------------------------\nGenerated with Cool NFO Creator - http://fly.to/coolbeans\n-------------------------------------------------------------------------------\n","torrent":{"xt":"urn:btih:991920682ff61d4d080e5f270e97883de7212f56","amp;dn":"It%27s+In+the+Blood+%282012%29+WEBRip","amp;tr":["udp%3A%2F%2Ftracker.openbittorrent.com%3A80","udp%3A%2F%2Fopen.demonii.com%3A1337","udp%3A%2F%2Ftracker.coppersurfer.tk%3A6969","udp%3A%2F%2Fexodus.desync.com%3A6969"],"infoHash":"991920682ff61d4d080e5f270e97883de7212f56","infoHashBuffer":{"type":"Buffer","data":[153,25,32,104,47,246,29,77,8,14,95,39,14,151,136,61,231,33,47,86]},"announce":[],"urlList":[]}}